<svg width="32" height="32" viewBox="0 0 32 32" fill="none" xmlns="http://www.w3.org/2000/svg">
<path fill-rule="evenodd" clip-rule="evenodd" d="M29.4033 7.58446C29.8687 8.04277 30.2039 8.61334 30.3752 9.23914C30.9926 11.542 31 16.3497 31 16.3497C31 16.3497 31 21.1573 30.3752 23.4602C30.2039 24.086 29.8687 24.6566 29.4033 25.1149C28.9379 25.5732 28.3584 25.9032 27.7229 26.072C25.3843 26.6897 16 26.6897 16 26.6897C16 26.6897 6.61821 26.6897 4.27955 26.072C3.64381 25.9037 3.06414 25.5738 2.59864 25.1154C2.13315 24.6571 1.79816 24.0863 1.62726 23.4602C1 21.1573 1 16.3497 1 16.3497C1 16.3497 1 11.542 1.62726 9.23914C1.79665 8.61132 2.13096 8.0385 2.59656 7.57832C3.06215 7.11813 3.64262 6.7868 4.27955 6.61767C6.61574 6 16 6 16 6C16 6 25.3818 6 27.7229 6.6274C28.3584 6.79614 28.9379 7.12615 29.4033 7.58446ZM20.7958 16.3497L12.9995 20.7804V11.919L20.7958 16.3497Z" fill="#FF0000"/>
</svg>
